<svg width="800" height="800" viewBox="0 0 800 800" fill="none" xmlns="http://www.w3.org/2000/svg">
<rect width="800" height="800" fill="white"/>
<path d="M302.656 100.156H282.188C260.781 100.156 243.281 117.5 243.281 139.063V179.219H302.656V100.156ZM289.219 141.875C289.063 142.5 288.906 143.281 288.594 143.906C288.281 144.531 287.969 145.156 287.656 145.781C287.188 146.406 286.875 146.875 286.25 147.5C284.219 149.531 281.406 150.781 278.438 150.781C277.656 150.781 277.031 150.781 276.25 150.625C275.625 150.469 274.844 150.313 274.219 150C273.594 149.688 272.969 149.375 272.344 148.906C271.719 148.438 271.25 148.125 270.625 147.5C270.156 147.031 269.688 146.406 269.219 145.781C268.75 145.156 268.438 144.531 268.281 143.906C267.969 143.281 267.813 142.5 267.656 141.875C267.5 141.25 267.5 140.469 267.5 139.688C267.5 138.906 267.5 138.281 267.656 137.5C267.813 136.875 267.969 136.094 268.281 135.469C268.594 134.844 268.906 134.219 269.219 133.594C269.688 132.969 270 132.344 270.625 131.875C273.125 129.375 276.875 128.125 280.469 128.906C281.094 129.063 281.875 129.219 282.5 129.531C283.125 129.844 283.75 130.156 284.375 130.469C285 130.938 285.469 131.25 286.094 131.875C286.563 132.344 287.031 132.969 287.5 133.594C287.969 134.219 288.281 134.844 288.438 135.469C288.75 136.094 288.906 136.875 289.063 137.5C289.219 138.281 289.219 138.906 289.219 139.688C289.531 140.313 289.375 141.094 289.219 141.875Z" fill="#1B3954"/>
<path d="M556.719 139.063C556.719 117.656 539.375 100.156 517.812 100.156H324.531V179.062H556.875V139.063H556.719ZM422.031 150.625H377.969C371.875 150.625 367.031 145.781 367.031 139.688C367.031 133.594 371.875 128.75 377.969 128.75H422.031C428.125 128.75 432.969 133.594 432.969 139.688C432.969 145.781 428.125 150.625 422.031 150.625Z" fill="#16ADE1"/>
<path d="M653.281 295.313C647.656 297.344 644.531 303.594 646.562 309.219C656.719 338.281 661.875 368.75 661.875 399.844C661.875 430.938 656.719 461.563 646.562 490.469C644.531 496.094 647.5 502.344 653.281 504.375C654.531 504.844 655.781 505 656.875 505C661.406 505 665.625 502.188 667.187 497.656C678.281 466.25 683.75 433.281 683.75 399.688C683.75 366.094 678.125 333.125 667.187 301.719C665.156 296.406 658.906 293.281 653.281 295.313Z" fill="#1B3954"/>
<path d="M699.531 279.062C693.906 281.094 690.781 287.344 692.812 292.969C704.844 327.187 710.937 363.281 710.937 400C710.937 436.719 704.844 472.656 692.812 507.031C690.781 512.656 693.75 518.906 699.531 520.937C700.781 521.406 701.875 521.562 703.125 521.562C707.656 521.562 711.875 518.75 713.437 514.219C726.25 477.656 732.812 439.219 732.812 400C732.812 360.781 726.25 322.344 713.437 285.781C711.562 280.156 705.312 277.031 699.531 279.062Z" fill="#1B3954"/>
<path d="M606.875 311.562C601.25 313.594 598.125 319.844 600.156 325.469C608.594 349.375 612.812 374.375 612.812 400C612.812 425.625 608.594 450.625 600.156 474.531C598.125 480.156 601.094 486.406 606.875 488.437C608.125 488.906 609.219 489.062 610.469 489.062C615 489.062 619.219 486.25 620.781 481.719C630 455.469 634.687 428.125 634.687 400C634.687 371.875 630 344.531 620.781 318.281C618.75 312.656 612.656 309.531 606.875 311.562Z" fill="#1B3954"/>
<path d="M759.844 269.531C757.812 263.906 751.562 260.781 745.937 262.812C740.312 264.844 737.187 271.094 739.219 276.719C753.125 316.25 760.156 357.656 760.156 400C760.156 442.344 753.125 483.75 739.219 523.281C737.187 528.906 740.156 535.156 745.937 537.187C747.187 537.656 748.281 537.813 749.531 537.813C754.062 537.813 758.281 535 759.844 530.469C774.531 488.594 781.875 444.687 781.875 400C781.875 355.312 774.531 311.406 759.844 269.531Z" fill="#1B3954"/>
<path d="M146.719 295.313C141.094 293.281 134.844 296.25 132.812 302.031C121.875 333.438 116.25 366.406 116.25 400C116.25 433.594 121.875 466.563 132.812 497.969C134.375 502.5 138.594 505.313 143.125 505.313C144.375 505.313 145.625 505.156 146.719 504.688C152.344 502.656 155.469 496.406 153.437 490.781C143.281 461.719 138.125 431.25 138.125 400.156C138.125 369.063 143.281 338.438 153.437 309.531C155.469 303.594 152.5 297.344 146.719 295.313Z" fill="#1B3954"/>
<path d="M100.469 279.063C94.8438 277.031 88.5938 280 86.5625 285.781C73.75 322.344 67.1875 360.781 67.1875 400C67.1875 439.219 73.75 477.656 86.5625 514.219C88.125 518.75 92.3437 521.563 96.875 521.563C98.125 521.563 99.375 521.406 100.469 520.938C106.094 518.906 109.219 512.656 107.187 507.031C95.1562 472.813 89.0625 436.719 89.0625 400C89.0625 363.281 95.1562 327.344 107.187 292.969C109.062 287.344 106.094 281.094 100.469 279.063Z" fill="#1B3954"/>
<path d="M193.125 311.563C187.5 309.531 181.25 312.5 179.219 318.281C170 344.531 165.312 371.875 165.312 400C165.312 428.125 170 455.469 179.219 481.719C180.781 486.25 185 489.063 189.531 489.063C190.781 489.063 192.031 488.906 193.125 488.438C198.75 486.406 201.875 480.156 199.844 474.531C191.406 450.625 187.187 425.625 187.187 400C187.187 374.375 191.406 349.375 199.844 325.469C201.875 319.844 198.75 313.594 193.125 311.563Z" fill="#1B3954"/>
<path d="M54.0625 262.813C48.4375 260.781 42.1875 263.75 40.1563 269.531C25.4688 311.406 18.125 355.313 18.125 400C18.125 444.688 25.625 488.594 40.1563 530.469C41.7188 535 45.9375 537.813 50.4688 537.813C51.7188 537.813 52.8125 537.656 54.0625 537.188C59.6875 535.156 62.8125 528.906 60.7813 523.281C46.875 483.75 39.8438 442.344 39.8438 400C39.8438 357.656 46.875 316.25 60.7813 276.719C62.8125 271.094 59.6875 264.844 54.0625 262.813Z" fill="#1B3954"/>
<path d="M556.719 201.094H243.281V551.563H320.156C326.25 551.563 331.094 556.406 331.094 562.5C331.094 568.594 326.25 573.438 320.156 573.438H243.281V598.906H556.875V201.094H556.719ZM365.156 564.687C365 565.312 364.844 566.094 364.531 566.719C364.219 567.344 363.906 567.969 363.594 568.594C363.125 569.219 362.813 569.688 362.188 570.313C360.156 572.344 357.344 573.594 354.375 573.594C353.594 573.594 352.969 573.438 352.187 573.438C351.562 573.281 350.781 573.125 350.156 572.813C349.531 572.5 348.906 572.188 348.281 571.875C347.656 571.406 347.188 570.938 346.563 570.469C346.094 570 345.625 569.375 345.156 568.75C344.687 568.125 344.375 567.5 344.219 566.875C343.906 566.25 343.75 565.469 343.594 564.844C343.437 564.063 343.438 563.438 343.438 562.656C343.438 562.031 343.437 561.25 343.594 560.469C343.75 559.844 343.906 559.062 344.219 558.437C344.531 557.812 344.844 557.188 345.156 556.563C345.625 555.938 345.938 555.469 346.563 554.844C347.031 554.375 347.656 553.906 348.281 553.438C348.906 552.969 349.531 552.656 350.156 552.5C350.781 552.188 351.562 552.031 352.187 551.875C353.594 551.563 355 551.563 356.406 551.875C357.188 552.031 357.812 552.188 358.437 552.5C359.062 552.813 359.688 553.125 360.313 553.438C360.938 553.906 361.406 554.375 362.031 554.844C362.5 555.313 362.969 555.938 363.438 556.563C363.906 557.188 364.219 557.812 364.375 558.437C364.688 559.062 364.844 559.844 365 560.469C365.156 561.094 365.156 561.875 365.156 562.656C365.156 563.438 365.313 563.906 365.156 564.687ZM502.656 444.063H444.219V502.5H355.938V444.063H297.5V355.781H355.938V297.344H444.219V355.781H502.656V444.063Z" fill="#1B3954"/>
<path d="M243.281 660.938C243.281 682.344 260.625 699.844 282.188 699.844H517.969C539.375 699.844 556.875 682.5 556.875 660.938V620.781H243.281V660.938ZM392.188 652.656C394.688 650.156 398.437 648.906 402.031 649.688C402.656 649.844 403.438 650 404.063 650.313C404.688 650.625 405.312 650.938 405.937 651.406C406.562 651.875 407.031 652.187 407.656 652.812C409.687 654.844 410.938 657.656 410.938 660.469C410.938 663.281 409.687 666.094 407.656 668.281C405.625 670.313 402.813 671.406 400 671.406C399.219 671.406 398.594 671.406 397.813 671.25C397.188 671.094 396.406 670.938 395.781 670.625C395.156 670.313 394.531 670 393.906 669.688C393.281 669.219 392.813 668.906 392.188 668.281C390.156 666.25 389.063 663.438 389.063 660.469C389.063 657.5 390.313 654.688 392.188 652.656Z" fill="#16ADE1"/>
</svg>
